<?xml version="1.0" encoding="UTF-8"?>
<svg xmlns="http://www.w3.org/2000/svg" xmlns:xlink="http://www.w3.org/1999/xlink" width="2400" height="2400" viewBox="0 0 2400 2400">
<rect x="-240" y="-240" width="2880" height="2880" fill="rgb(99.609375%, 99.609375%, 99.609375%)" fill-opacity="1"/>
<path fill-rule="nonzero" fill="rgb(30.979919%, 69.334412%, 24.705505%)" fill-opacity="1" d="M 1104.121094 543.289062 C 951 564.46875 813.828125 635.671875 709.652344 739.839844 C 584.148438 865.351562 506.507812 1038.71875 506.507812 1230.191406 L 506.507812 1230.480469 C 506.507812 1421.949219 584.148438 1595.328125 709.652344 1720.824219 C 830.824219 1842 996.632812 1918.546875 1180.261719 1923.683594 L 1180.261719 1923.398438 C 1186.820312 1923.582031 1193.398438 1923.683594 1200 1923.683594 C 1206.601562 1923.683594 1213.179688 1923.582031 1219.738281 1923.398438 L 1219.738281 1923.683594 C 1403.371094 1918.546875 1569.179688 1842 1690.351562 1720.824219 C 1815.851562 1595.328125 1893.488281 1421.949219 1893.488281 1230.480469 L 1893.488281 1230.191406 C 1893.488281 1038.71875 1815.851562 865.351562 1690.351562 739.839844 C 1586.171875 635.671875 1449 564.46875 1295.878906 543.289062 C 1509.179688 609.300781 1930.75 888.898438 1784.039062 1433.667969 L 1217.449219 1433.667969 C 1218.230469 1416.5625 1220.679688 1397.179688 1224.78125 1375.441406 C 1250.488281 1239.460938 1346.21875 1125.96875 1453.46875 1066.691406 C 1372.359375 1122.25 1279.011719 1224.019531 1245.011719 1384.03125 C 1564.160156 1394.699219 1483.03125 1078.21875 1664.679688 912.058594 C 1320.421875 940.699219 1170.460938 1085.050781 1214.730469 1345.089844 L 1200 1384.621094 L 1185.269531 1345.089844 C 1229.539062 1085.050781 1079.578125 940.699219 735.324219 912.058594 C 916.96875 1078.21875 835.839844 1394.699219 1154.980469 1384.03125 C 1120.988281 1224.019531 1027.640625 1122.25 946.53125 1066.691406 C 1053.78125 1125.96875 1149.511719 1239.460938 1175.21875 1375.441406 C 1179.320312 1397.179688 1181.769531 1416.5625 1182.550781 1433.667969 L 615.957031 1433.667969 C 469.25 888.898438 890.820312 609.300781 1104.121094 543.289062 Z M 1200 476.320312 C 1254.699219 585.738281 1335.320312 704.578125 1335.320312 809.480469 C 1335.320312 914.378906 1293.550781 996.949219 1226.730469 1059.320312 L 1217.769531 971.75 L 1200 798.011719 L 1182.230469 971.75 L 1173.269531 1059.320312 C 1106.449219 996.949219 1064.679688 914.378906 1064.679688 809.480469 C 1064.679688 704.578125 1145.300781 585.738281 1200 476.320312 "/>
<path fill-rule="nonzero" fill="rgb(99.609375%, 99.609375%, 99.609375%)" fill-opacity="1" d="M 763.664062 1545.101562 L 811.425781 1545.101562 L 846.421875 1642.601562 L 881.414062 1545.101562 L 928.292969 1545.101562 L 865.785156 1700.265625 L 826.171875 1700.265625 Z M 957.402344 1545.101562 L 1081.089844 1545.101562 L 1081.089844 1581.417969 L 999.441406 1581.417969 L 999.441406 1604.746094 L 1073.390625 1604.746094 L 1073.390625 1638.421875 L 999.441406 1638.421875 L 999.441406 1662.851562 L 1082.191406 1662.851562 L 1082.191406 1699.164062 L 957.402344 1699.164062 Z M 1196.921875 1702.246094 C 1184.890625 1702.246094 1173.769531 1700.304688 1163.570312 1696.414062 C 1153.378906 1692.527344 1144.539062 1687.0625 1137.050781 1680.015625 C 1129.570312 1672.976562 1123.699219 1664.574219 1119.449219 1654.816406 C 1115.191406 1645.058594 1113.058594 1634.3125 1113.058594 1622.574219 L 1113.058594 1622.132812 C 1113.058594 1610.984375 1115.148438 1600.527344 1119.300781 1590.769531 C 1123.480469 1581.015625 1129.199219 1572.503906 1136.5 1565.242188 C 1143.800781 1557.976562 1152.53125 1552.292969 1162.730469 1548.183594 C 1172.890625 1544.074219 1183.929688 1542.019531 1195.820312 1542.019531 C 1209.460938 1542.019531 1221.238281 1544.003906 1231.140625 1547.964844 C 1241.050781 1551.925781 1250.109375 1557.429688 1258.320312 1564.472656 L 1233.230469 1594.621094 C 1227.660156 1589.925781 1221.96875 1586.332031 1216.179688 1583.839844 C 1210.378906 1581.34375 1203.671875 1580.097656 1196.039062 1580.097656 C 1190.460938 1580.097656 1185.289062 1581.195312 1180.519531 1583.398438 C 1175.75 1585.597656 1171.609375 1588.605469 1168.089844 1592.421875 C 1164.558594 1596.238281 1161.78125 1600.710938 1159.71875 1605.847656 C 1157.671875 1610.984375 1156.640625 1616.484375 1156.640625 1622.355469 L 1156.640625 1622.796875 C 1156.640625 1628.957031 1157.671875 1634.679688 1159.71875 1639.960938 C 1161.78125 1645.242188 1164.710938 1649.753906 1168.449219 1653.496094 C 1172.191406 1657.238281 1176.628906 1660.171875 1181.691406 1662.300781 C 1186.789062 1664.429688 1192.410156 1665.492188 1198.609375 1665.492188 C 1208.621094 1665.492188 1216.839844 1663.363281 1223.328125 1659.109375 L 1223.328125 1640.402344 L 1192.960938 1640.402344 L 1192.960938 1609.148438 L 1263.828125 1609.148438 L 1263.828125 1678.476562 C 1255.609375 1685.226562 1245.921875 1690.875 1234.769531 1695.425781 C 1223.621094 1699.972656 1211 1702.246094 1196.921875 1702.246094 Z M 1392.421875 1638.640625 L 1375.25 1594.84375 L 1357.859375 1638.640625 Z M 1355 1544.003906 L 1396.160156 1544.003906 L 1461.738281 1699.164062 L 1415.960938 1699.164062 L 1404.738281 1671.652344 L 1345.320312 1671.652344 L 1334.308594 1699.164062 L 1289.410156 1699.164062 Z M 1490.851562 1545.101562 L 1530.761719 1545.101562 L 1594.300781 1626.535156 L 1594.300781 1545.101562 L 1636.328125 1545.101562 L 1636.328125 1699.164062 L 1598.839844 1699.164062 L 1532.890625 1614.652344 L 1532.890625 1699.164062 L 1490.851562 1699.164062 L 1490.851562 1545.101562 "/>
</svg>
